<svg width="20" height="20" viewBox="0 0 20 20" fill="none" xmlns="http://www.w3.org/2000/svg">
<path d="M19.582 5.51991C19.352 4.65946 18.6744 3.98171 17.8139 3.75174C16.2541 3.3338 9.99995 3.3338 9.99995 3.3338C9.99995 3.3338 3.74583 3.3338 2.1861 3.75174C1.32565 3.98171 0.647907 4.65946 0.41794 5.51991C0 7.07964 0 10.3338 0 10.3338C0 10.3338 0 13.588 0.41794 15.1477C0.647907 16.0081 1.32565 16.6859 2.1861 16.9158C3.74583 17.3339 9.99995 17.3339 9.99995 17.3339C9.99995 17.3339 16.2541 17.3339 17.8139 16.9158C18.6744 16.6859 19.352 16.0081 19.582 15.1477C20 13.588 20 10.3338 20 10.3338C20 10.3338 20 7.07964 19.582 5.51991Z" fill="#ED1D24"/>
<path d="M7.99997 13.3337L13.196 10.3338L7.99997 7.33371V13.3337Z" fill="white"/>
</svg>
