<svg width="20" height="20" viewBox="0 0 20 20" fill="none" xmlns="http://www.w3.org/2000/svg">
<rect y="2.8584" width="20" height="14.2857" rx="2" fill="white"/>
<mask id="mask0_4529_1862" style="mask-type:luminance" maskUnits="userSpaceOnUse" x="0" y="2" width="20" height="16">
<rect y="2.8584" width="20" height="14.2857" rx="2" fill="white"/>
</mask>
<g mask="url(#mask0_4529_1862)">
<rect y="2.8584" width="20" height="14.2857" fill="#F1361D"/>
<path fill-rule="evenodd" clip-rule="evenodd" d="M7.1947 5.07335L7.88645 5.19128L8.40526 5.66378L8.52319 4.97203L8.99569 4.45322L8.30394 4.33529L7.78513 3.86279L7.6672 4.55454L7.1947 5.07335ZM9.04757 7.49288L9.64701 7.12806L10.3485 7.14429L9.98373 6.54485L9.99995 5.84331L9.40051 6.20813L8.69898 6.19191L9.0638 6.79134L9.04757 7.49288ZM8.23445 11.4092L7.64811 11.7947L7.63984 11.093L7.25432 10.5067L7.956 10.4984L8.54234 10.1129L8.55061 10.8146L8.93613 11.4009L8.23445 11.4092ZM8.74364 9.59526L9.44109 9.51796L10.07 9.82914L9.99274 9.13169L10.3039 8.50274L9.60647 8.58004L8.97752 8.26886L9.05483 8.96631L8.74364 9.59526Z" fill="#FFDC42"/>
<path fill-rule="evenodd" clip-rule="evenodd" d="M4.76193 8.73461L3.08254 9.9318L3.70218 7.96466L2.04462 6.73742L4.10697 6.71885L4.76193 4.76318L5.41689 6.71885L7.47923 6.73742L5.82168 7.96466L6.44131 9.9318L4.76193 8.73461Z" fill="#FFDC42"/>
</g>
</svg>
