<svg width="20" height="20" viewBox="0 0 20 20" fill="none" xmlns="http://www.w3.org/2000/svg">
<rect y="2.8584" width="20" height="14.2857" rx="2" fill="white"/>
<mask id="mask0_4529_1991" style="mask-type:luminance" maskUnits="userSpaceOnUse" x="0" y="2" width="20" height="16">
<rect y="2.8584" width="20" height="14.2857" rx="2" fill="white"/>
</mask>
<g mask="url(#mask0_4529_1991)">
<path fill-rule="evenodd" clip-rule="evenodd" d="M20 2.8584H0V3.81078H20V2.8584ZM20 4.76316H0V5.71554H20V4.76316ZM0 6.66792H20V7.6203H0V6.66792ZM20 8.57268H0V9.52506H20V8.57268ZM0 10.4774H20V11.4298H0V10.4774ZM20 12.3822H0V13.3346H20V12.3822ZM0 14.287H20V15.2393H0V14.287ZM20 16.1917H0V17.1441H20V16.1917Z" fill="#D02F44"/>
<rect y="2.8584" width="8.57143" height="6.66667" fill="#46467F"/>
<g filter="url(#filter0_d_4529_1991)">
<path fill-rule="evenodd" clip-rule="evenodd" d="M1.90477 4.28698C1.90477 4.54997 1.69158 4.76317 1.42858 4.76317C1.16559 4.76317 0.952393 4.54997 0.952393 4.28698C0.952393 4.02399 1.16559 3.81079 1.42858 3.81079C1.69158 3.81079 1.90477 4.02399 1.90477 4.28698ZM3.80954 4.28698C3.80954 4.54997 3.59634 4.76317 3.33335 4.76317C3.07035 4.76317 2.85715 4.54997 2.85715 4.28698C2.85715 4.02399 3.07035 3.81079 3.33335 3.81079C3.59634 3.81079 3.80954 4.02399 3.80954 4.28698ZM5.23811 4.76317C5.5011 4.76317 5.7143 4.54997 5.7143 4.28698C5.7143 4.02399 5.5011 3.81079 5.23811 3.81079C4.97511 3.81079 4.76192 4.02399 4.76192 4.28698C4.76192 4.54997 4.97511 4.76317 5.23811 4.76317ZM7.61906 4.28698C7.61906 4.54997 7.40586 4.76317 7.14287 4.76317C6.87988 4.76317 6.66668 4.54997 6.66668 4.28698C6.66668 4.02399 6.87988 3.81079 7.14287 3.81079C7.40586 3.81079 7.61906 4.02399 7.61906 4.28698ZM2.38096 5.71555C2.64396 5.71555 2.85715 5.50236 2.85715 5.23936C2.85715 4.97637 2.64396 4.76317 2.38096 4.76317C2.11797 4.76317 1.90477 4.97637 1.90477 5.23936C1.90477 5.50236 2.11797 5.71555 2.38096 5.71555ZM4.76192 5.23936C4.76192 5.50236 4.54872 5.71555 4.28573 5.71555C4.02273 5.71555 3.80954 5.50236 3.80954 5.23936C3.80954 4.97637 4.02273 4.76317 4.28573 4.76317C4.54872 4.76317 4.76192 4.97637 4.76192 5.23936ZM6.19049 5.71555C6.45348 5.71555 6.66668 5.50236 6.66668 5.23936C6.66668 4.97637 6.45348 4.76317 6.19049 4.76317C5.9275 4.76317 5.7143 4.97637 5.7143 5.23936C5.7143 5.50236 5.9275 5.71555 6.19049 5.71555ZM7.61906 6.19174C7.61906 6.45474 7.40586 6.66793 7.14287 6.66793C6.87988 6.66793 6.66668 6.45474 6.66668 6.19174C6.66668 5.92875 6.87988 5.71555 7.14287 5.71555C7.40586 5.71555 7.61906 5.92875 7.61906 6.19174ZM5.23811 6.66793C5.5011 6.66793 5.7143 6.45474 5.7143 6.19174C5.7143 5.92875 5.5011 5.71555 5.23811 5.71555C4.97511 5.71555 4.76192 5.92875 4.76192 6.19174C4.76192 6.45474 4.97511 6.66793 5.23811 6.66793ZM3.80954 6.19174C3.80954 6.45474 3.59634 6.66793 3.33335 6.66793C3.07035 6.66793 2.85715 6.45474 2.85715 6.19174C2.85715 5.92875 3.07035 5.71555 3.33335 5.71555C3.59634 5.71555 3.80954 5.92875 3.80954 6.19174ZM1.42858 6.66793C1.69158 6.66793 1.90477 6.45474 1.90477 6.19174C1.90477 5.92875 1.69158 5.71555 1.42858 5.71555C1.16559 5.71555 0.952393 5.92875 0.952393 6.19174C0.952393 6.45474 1.16559 6.66793 1.42858 6.66793ZM2.85715 7.14412C2.85715 7.40712 2.64396 7.62031 2.38096 7.62031C2.11797 7.62031 1.90477 7.40712 1.90477 7.14412C1.90477 6.88113 2.11797 6.66793 2.38096 6.66793C2.64396 6.66793 2.85715 6.88113 2.85715 7.14412ZM4.28573 7.62031C4.54872 7.62031 4.76192 7.40712 4.76192 7.14412C4.76192 6.88113 4.54872 6.66793 4.28573 6.66793C4.02273 6.66793 3.80954 6.88113 3.80954 7.14412C3.80954 7.40712 4.02273 7.62031 4.28573 7.62031ZM6.66668 7.14412C6.66668 7.40712 6.45348 7.62031 6.19049 7.62031C5.9275 7.62031 5.7143 7.40712 5.7143 7.14412C5.7143 6.88113 5.9275 6.66793 6.19049 6.66793C6.45348 6.66793 6.66668 6.88113 6.66668 7.14412ZM7.14287 8.5727C7.40586 8.5727 7.61906 8.3595 7.61906 8.09651C7.61906 7.83351 7.40586 7.62031 7.14287 7.62031C6.87988 7.62031 6.66668 7.83351 6.66668 8.09651C6.66668 8.3595 6.87988 8.5727 7.14287 8.5727ZM5.7143 8.09651C5.7143 8.3595 5.5011 8.5727 5.23811 8.5727C4.97511 8.5727 4.76192 8.3595 4.76192 8.09651C4.76192 7.83351 4.97511 7.62031 5.23811 7.62031C5.5011 7.62031 5.7143 7.83351 5.7143 8.09651ZM3.33335 8.5727C3.59634 8.5727 3.80954 8.3595 3.80954 8.09651C3.80954 7.83351 3.59634 7.62031 3.33335 7.62031C3.07035 7.62031 2.85715 7.83351 2.85715 8.09651C2.85715 8.3595 3.07035 8.5727 3.33335 8.5727ZM1.90477 8.09651C1.90477 8.3595 1.69158 8.5727 1.42858 8.5727C1.16559 8.5727 0.952393 8.3595 0.952393 8.09651C0.952393 7.83351 1.16559 7.62031 1.42858 7.62031C1.69158 7.62031 1.90477 7.83351 1.90477 8.09651Z" fill="url(#paint0_linear_4529_1991)"/>
</g>
</g>
<defs>
<filter id="filter0_d_4529_1991" x="0.952393" y="3.81079" width="6.66663" height="5.76196" filterUnits="userSpaceOnUse" color-interpolation-filters="sRGB">
<feFlood flood-opacity="0" result="BackgroundImageFix"/>
<feColorMatrix in="SourceAlpha" type="matrix" values="0 0 0 0 0 0 0 0 0 0 0 0 0 0 0 0 0 0 127 0" result="hardAlpha"/>
<feOffset dy="1"/>
<feColorMatrix type="matrix" values="0 0 0 0 0 0 0 0 0 0 0 0 0 0 0 0 0 0 0.06 0"/>
<feBlend mode="normal" in2="BackgroundImageFix" result="effect1_dropShadow_4529_1991"/>
<feBlend mode="normal" in="SourceGraphic" in2="effect1_dropShadow_4529_1991" result="shape"/>
</filter>
<linearGradient id="paint0_linear_4529_1991" x1="0.952393" y1="3.81079" x2="0.952393" y2="8.5727" gradientUnits="userSpaceOnUse">
<stop stop-color="white"/>
<stop offset="1" stop-color="#F0F0F0"/>
</linearGradient>
</defs>
</svg>
